# xmcd
#
# Track frame offsets: 
#        150
#        14074
#        34283
#        47480
#        60000
#        71729
#        85597
#        99951
#        109603
#        124315
#        141506
#        150300
#        166152
#        175509
#        196030
#        210947
#        224175
#        233724
#        241406
#        253023
#        265877
#
# Disc length: 3859 seconds
#
# Revision: 0
# Processed by: cddbd v1.5.2PL0 Copyright (c) Steve Scherf et al.
# Submitted via: ExactAudioCopy v1.3
#
DISCID=190f1115
DTITLE=The Saint Louis Jesuits - Neither Silver Nor Gold CD1
DYEAR=1976
DGENRE=Christian
TTITLE0=For You Are My God
TTITLE1=You Are Near
TTITLE2=This Is My Body
TTITLE3=All My Days
TTITLE4=The Lord Is My Shepherd
TTITLE5=Play Before the Lord
TTITLE6=A Banquet Is Prepared
TTITLE7=Let All Who Fear the Lord
TTITLE8=Happy Are the Ones
TTITLE9=Father, Mercy
TTITLE10=Look Toward Me
TTITLE11=Before the Sun Burned Bright
TTITLE12=Rise Up, Jerusalem
TTITLE13=My People
TTITLE14=Sing of Him
TTITLE15=Mountains and Hills
TTITLE16=To You I Lift Up My Soul
TTITLE17=Sing to the Lord
TTITLE18=Deliver Us, O God of Israel
TTITLE19=Come with Me into the Fields
TTITLE20=Worthy Is the lamb
EXTD=
EXTT0=
EXTT1=
EXTT2=
EXTT3=
EXTT4=
EXTT5=
EXTT6=
EXTT7=
EXTT8=
EXTT9=
EXTT10=
EXTT11=
EXTT12=
EXTT13=
EXTT14=
EXTT15=
EXTT16=
EXTT17=
EXTT18=
EXTT19=
EXTT20=
PLAYORDER=
